<?xml version="1.0" encoding="utf-8"?>
<!-- Generator: Adobe Illustrator 13.0.0, SVG Export Plug-In . SVG Version: 6.00 Build 14948)  -->
<!DOCTYPE svg PUBLIC "-//W3C//DTD SVG 1.1//EN" "http://www.w3.org/Graphics/SVG/1.1/DTD/svg11.dtd">
<svg version="1.1" id="Layer_1" xmlns="http://www.w3.org/2000/svg" xmlns:xlink="http://www.w3.org/1999/xlink" x="0px" y="0px"
	 width="40px" height="40px" viewBox="0 0 40 40" enable-background="new 0 0 40 40" xml:space="preserve">
<g id="Creative_cloud_cloud_computing_floder_gear">
	<path fill="#FFFFFF" d="M38.125,14.375c0.346,0,0.625-0.28,0.625-0.625V10c0-0.345-0.279-0.625-0.625-0.625h-2.344l-0.112-0.263
		l1.662-1.656c0.244-0.246,0.244-0.642,0-0.887l-2.649-2.65c-0.251-0.231-0.637-0.231-0.888,0l-1.656,1.662l-0.263-0.112V3.125
		c0-0.345-0.279-0.625-0.625-0.625H27.5c-0.346,0-0.625,0.28-0.625,0.625v2.344l-0.263,0.112l-1.656-1.662
		c-0.251-0.231-0.637-0.231-0.888,0l-0.456,0.462c-0.661,0.015-1.315,0.146-1.931,0.387c-2.537-3.692-7.587-4.629-11.28-2.092
		C8.716,3.834,7.53,5.586,7.081,7.581c-3.752,0.582-6.322,4.096-5.74,7.848c0.519,3.346,3.397,5.816,6.784,5.821H21.25v14.375
		c0,0.346,0.279,0.625,0.625,0.625h11.963c0.345,1.337,1.709,2.141,3.045,1.795C38.22,37.7,39.023,36.337,38.679,35
		s-1.709-2.141-3.046-1.795c-0.881,0.227-1.568,0.914-1.795,1.795H22.5V21.25h6.25v4.375c0,0.346,0.279,0.625,0.625,0.625h4.463
		c0.345,1.337,1.709,2.141,3.045,1.796C38.22,27.7,39.023,26.337,38.679,25s-1.709-2.141-3.046-1.796
		c-0.881,0.228-1.568,0.915-1.795,1.796H30v-3.75h1.25c0.346,0,0.625-0.279,0.625-0.625v-2.344l0.263-0.112l1.655,1.662
		c0.252,0.231,0.638,0.231,0.889,0l2.649-2.65c0.243-0.246,0.243-0.642,0-0.887l-1.663-1.656l0.113-0.263H38.125z M36.25,34.375
		c0.69,0,1.25,0.56,1.25,1.25s-0.56,1.25-1.25,1.25S35,36.315,35,35.625C35.002,34.936,35.561,34.377,36.25,34.375z M36.25,24.375
		c0.69,0,1.25,0.56,1.25,1.25s-0.56,1.25-1.25,1.25S35,26.315,35,25.625C35.002,24.936,35.561,24.377,36.25,24.375z M8.125,20
		c-3.106-0.032-5.599-2.576-5.567-5.683c0.03-2.88,2.23-5.273,5.098-5.542C7.943,8.75,8.178,8.534,8.225,8.25
		c0.615-3.74,4.146-6.274,7.886-5.659c2.009,0.331,3.768,1.536,4.801,3.291c0.169,0.285,0.531,0.39,0.826,0.237
		c0.08-0.043,0.162-0.075,0.249-0.112l-0.568,0.563c-0.243,0.246-0.243,0.642,0,0.887l1.662,1.656l-0.112,0.263h-2.344
		C20.28,9.375,20,9.655,20,10v3.75c0,0.345,0.28,0.625,0.625,0.625h2.344l0.112,0.263l-1.662,1.656
		c-0.244,0.246-0.244,0.642,0,0.887l2.649,2.65c0.113,0.104,0.26,0.164,0.413,0.169H8.125z M26.875,20h-2.331
		c0.153-0.005,0.3-0.065,0.412-0.169l1.656-1.662l0.263,0.112V20z M34.475,15.206l1.531,1.531l-1.769,1.769l-1.531-1.531
		c-0.192-0.195-0.489-0.241-0.731-0.113c-0.293,0.152-0.598,0.28-0.912,0.381c-0.262,0.08-0.439,0.321-0.438,0.594V20h-2.5v-2.163
		c0.002-0.273-0.176-0.514-0.438-0.594c-0.314-0.102-0.619-0.229-0.912-0.381c-0.242-0.128-0.54-0.083-0.732,0.113l-1.531,1.531
		l-1.768-1.769l1.531-1.531c0.195-0.192,0.24-0.489,0.111-0.731c-0.148-0.294-0.276-0.599-0.381-0.913
		c-0.079-0.261-0.32-0.439-0.594-0.438H21.25v-2.5h2.162c0.273,0.001,0.515-0.176,0.594-0.438c0.104-0.313,0.232-0.618,0.382-0.913
		c0.128-0.242,0.083-0.539-0.112-0.731l-1.531-1.531l1.769-1.769l1.531,1.531c0.192,0.193,0.489,0.239,0.731,0.113
		c0.293-0.152,0.598-0.28,0.912-0.381c0.262-0.08,0.439-0.321,0.438-0.594V3.75h2.5v2.163c-0.002,0.273,0.177,0.514,0.438,0.594
		c0.314,0.102,0.619,0.229,0.912,0.381c0.242,0.126,0.539,0.081,0.732-0.113l1.531-1.531l1.768,1.769l-1.531,1.531
		c-0.195,0.192-0.24,0.489-0.111,0.731c0.149,0.294,0.277,0.599,0.381,0.913c0.079,0.261,0.32,0.439,0.594,0.438H37.5v2.5h-2.162
		c-0.273-0.001-0.515,0.176-0.594,0.438c-0.104,0.313-0.232,0.618-0.382,0.913C34.234,14.717,34.279,15.015,34.475,15.206z"/>
	<path fill="#FFFFFF" d="M16.875,27.5H16.25v-0.625c-0.003-1.034-0.841-1.872-1.875-1.875h-6.25C7.78,25,7.5,24.721,7.5,24.375
		c-0.003-1.034-0.841-1.872-1.875-1.875h-2.5c-1.034,0.003-1.872,0.841-1.875,1.875v12.5c0.003,1.034,0.841,1.872,1.875,1.875h13.75
		c1.034-0.003,1.872-0.841,1.875-1.875v-7.5C18.747,28.341,17.909,27.503,16.875,27.5z M3.862,37.5H3.125
		C2.78,37.5,2.5,37.221,2.5,36.875v-12.5c0-0.346,0.28-0.625,0.625-0.625h2.5c0.345,0,0.625,0.279,0.625,0.625
		c0.003,1.034,0.841,1.872,1.875,1.875h6.25c0.345,0,0.625,0.279,0.625,0.625V27.5H5.625c-1.034,0.003-1.872,0.841-1.875,1.875v7.5
		C3.751,37.088,3.79,37.3,3.862,37.5z M17.5,36.875c0,0.346-0.28,0.625-0.625,0.625H5.625C5.28,37.5,5,37.221,5,36.875v-7.5
		c0-0.346,0.28-0.625,0.625-0.625h11.25c0.345,0,0.625,0.279,0.625,0.625V36.875z"/>
	<path fill="#FFFFFF" d="M5,14.375c0.008-1.621,1.25-2.968,2.864-3.109L7.761,10.02c-2.405,0.229-4.169,2.365-3.94,4.77
		c0.212,2.226,2.068,3.934,4.304,3.96V17.5C6.4,17.498,5.002,16.1,5,14.375z"/>
	<rect x="9.375" y="17.5" fill="#FFFFFF" width="2.5" height="1.25"/>
	<path fill="#FFFFFF" d="M29.375,7.5C26.959,7.5,25,9.459,25,11.875s1.959,4.375,4.375,4.375s4.375-1.959,4.375-4.375
		C33.747,9.46,31.79,7.503,29.375,7.5z M29.375,15c-1.727,0-3.125-1.399-3.125-3.125s1.398-3.125,3.125-3.125
		s3.125,1.399,3.125,3.125C32.498,13.6,31.1,14.998,29.375,15z"/>
</g>
</svg>
