<?xml version="1.0" encoding="utf-8"?>
<!-- Generator: Adobe Illustrator 13.0.0, SVG Export Plug-In . SVG Version: 6.00 Build 14948)  -->
<!DOCTYPE svg PUBLIC "-//W3C//DTD SVG 1.1//EN" "http://www.w3.org/Graphics/SVG/1.1/DTD/svg11.dtd">
<svg version="1.1" id="Layer_1" xmlns="http://www.w3.org/2000/svg" xmlns:xlink="http://www.w3.org/1999/xlink" x="0px" y="0px"
	 width="40px" height="40px" viewBox="0 0 40 40" enable-background="new 0 0 40 40" xml:space="preserve">
<g id="Page-1">
	<g id="_x30_29---mobile-chat">
		<path id="Shape" fill="#FFFFFF" d="M22.373,0H3.707C2.234,0,1.04,1.194,1.04,2.667V33.99V34v0.02v3.314
			C1.04,38.807,2.234,40,3.707,40h18.667c1.473,0,2.667-1.193,2.667-2.666V23.667c4.321,1.118,8.882-0.57,11.433-4.234
			c2.549-3.663,2.549-8.527,0-12.19c-2.551-3.664-7.111-5.353-11.433-4.234V2.667C25.04,1.194,23.846,0,22.373,0z M18.166,1.333
			l-0.855,0.912c-0.252,0.269-0.604,0.421-0.973,0.421h-6.6c-0.369,0-0.721-0.153-0.973-0.421L7.91,1.333H18.166z M3.707,1.333
			h2.375l1.71,1.824C8.296,3.694,9,3.999,9.737,4h6.6c0.737-0.001,1.44-0.306,1.945-0.843l1.71-1.824h2.38
			c0.736,0,1.334,0.597,1.334,1.333v0.771C19.661,5.058,17.006,8.975,17,13.333c-0.007,2.162,0.649,4.273,1.88,6.05l-1.365,3.758
			c-0.15,0.408-0.092,0.864,0.157,1.222c0.249,0.356,0.655,0.57,1.09,0.571c0.144,0.001,0.286-0.021,0.422-0.066l4.523-1.51v10.634
			v0.01c0,0.737-0.598,1.333-1.334,1.333H3.707c-0.729,0.001-1.323-0.584-1.333-1.313V2.667C2.373,1.93,2.97,1.333,3.707,1.333
			L3.707,1.333z M22.373,38.667H3.707c-0.736,0-1.333-0.597-1.333-1.333v-1.037c0.403,0.24,0.864,0.367,1.333,0.369h18.667
			c0.471-0.002,0.93-0.131,1.334-0.371v1.039C23.707,38.07,23.109,38.667,22.373,38.667z M37,13.333
			c-0.006,5.152-4.182,9.328-9.334,9.333c-1.209,0.004-2.407-0.23-3.525-0.689c-0.148-0.062-0.314-0.066-0.467-0.016L18.766,23.6
			l1.487-4.093c0.077-0.211,0.042-0.446-0.091-0.625c-1.194-1.603-1.836-3.549-1.829-5.548C18.333,8.179,22.512,4,27.666,4
			C32.821,4,37,8.179,37,13.333z"/>
		<path id="Shape_1_" fill="#FFFFFF" d="M20.333,13.333c0,1.104,0.895,2,2,2c1.104,0,2-0.896,2-2s-0.896-2-2-2
			C21.229,11.333,20.333,12.229,20.333,13.333z M22.334,12.667c0.367,0,0.666,0.299,0.666,0.667C23,13.702,22.701,14,22.334,14
			c-0.369,0-0.668-0.298-0.668-0.667C21.666,12.965,21.965,12.667,22.334,12.667z"/>
		<path id="Shape_2_" fill="#FFFFFF" d="M27.666,15.333c1.105,0,2-0.896,2-2s-0.895-2-2-2c-1.104,0-2,0.896-2,2
			S26.563,15.333,27.666,15.333z M27.666,12.667c0.369,0,0.668,0.299,0.668,0.667c0,0.369-0.299,0.667-0.668,0.667
			C27.299,14,27,13.702,27,13.333C27,12.965,27.299,12.667,27.666,12.667z"/>
		<path id="Shape_3_" fill="#FFFFFF" d="M33,15.333c1.104,0,2-0.896,2-2s-0.896-2-2-2s-2,0.896-2,2S31.896,15.333,33,15.333z
			 M33,12.667c0.368,0,0.666,0.299,0.666,0.667C33.666,13.702,33.368,14,33,14s-0.666-0.298-0.666-0.667
			C32.334,12.965,32.632,12.667,33,12.667z"/>
	</g>
</g>
</svg>
