<?xml version="1.0" encoding="utf-8"?>
<!-- Generator: Adobe Illustrator 13.0.0, SVG Export Plug-In . SVG Version: 6.00 Build 14948)  -->
<!DOCTYPE svg PUBLIC "-//W3C//DTD SVG 1.1//EN" "http://www.w3.org/Graphics/SVG/1.1/DTD/svg11.dtd">
<svg version="1.1" id="Capa_1" xmlns="http://www.w3.org/2000/svg" xmlns:xlink="http://www.w3.org/1999/xlink" x="0px" y="0px"
	 width="40px" height="40px" viewBox="0 0 40 40" enable-background="new 0 0 40 40" xml:space="preserve">
<g>
	<path fill="#FFFFFF" d="M25.518,10.396c1.076,0,1.953-0.876,1.953-1.953s-0.877-1.953-1.953-1.953
		c-1.077,0-1.953,0.876-1.953,1.953c0,0.44,0.146,0.846,0.393,1.173L20.748,14.1c-0.191-0.063-0.396-0.097-0.608-0.097
		c-0.513,0-0.98,0.199-1.33,0.524l-2.139-1.214c0.028-0.132,0.043-0.27,0.043-0.411c0-1.077-0.876-1.953-1.953-1.953
		c-1.077,0-1.953,0.876-1.953,1.953c0,0.141,0.016,0.278,0.044,0.411l-2.139,1.214c-0.349-0.325-0.816-0.524-1.33-0.524
		c-1.077,0-1.953,0.876-1.953,1.953c0,1.077,0.876,1.953,1.953,1.953c1.077,0,1.953-0.876,1.953-1.953
		c0-0.141-0.015-0.278-0.044-0.411l2.139-1.214c0.349,0.325,0.816,0.524,1.329,0.524c0.514,0,0.98-0.199,1.33-0.524l2.139,1.214
		c-0.029,0.133-0.044,0.27-0.044,0.411c0,1.077,0.876,1.954,1.953,1.954s1.953-0.876,1.953-1.954c0-0.44-0.146-0.846-0.393-1.173
		l3.209-4.485C25.101,10.361,25.305,10.396,25.518,10.396z M25.518,7.661c0.431,0,0.781,0.351,0.781,0.781s-0.351,0.781-0.781,0.781
		c-0.432,0-0.781-0.351-0.781-0.781S25.086,7.661,25.518,7.661z M9.384,16.737c-0.431,0-0.781-0.351-0.781-0.781
		c0-0.431,0.351-0.781,0.781-0.781c0.431,0,0.781,0.35,0.781,0.781C10.165,16.386,9.815,16.737,9.384,16.737z M14.762,13.683
		c-0.431,0-0.781-0.35-0.781-0.781c0-0.431,0.351-0.781,0.781-0.781s0.781,0.351,0.781,0.781
		C15.543,13.333,15.192,13.683,14.762,13.683z M20.14,16.737c-0.431,0-0.781-0.351-0.781-0.781c0-0.431,0.351-0.781,0.781-0.781
		s0.781,0.35,0.781,0.781C20.921,16.386,20.57,16.737,20.14,16.737z"/>
	<path fill="#FFFFFF" d="M32.719,29.45h-4.101H6.283H1.657c-0.268,0-0.485-0.218-0.485-0.485V4.792c0-0.268,0.218-0.486,0.485-0.486
		h2.762c0.324,0,0.586-0.262,0.586-0.586c0-0.323-0.262-0.586-0.586-0.586H1.657C0.744,3.134,0,3.877,0,4.792v24.173
		c0,0.914,0.744,1.657,1.657,1.657h4.04v1.29c0,0.734,0.598,1.332,1.333,1.332h5.865l-2.761,5.391
		c-0.147,0.288-0.034,0.641,0.254,0.789c0.085,0.043,0.177,0.064,0.267,0.064c0.213,0,0.418-0.117,0.522-0.319l3.035-5.925h6.478
		l3.035,5.925c0.104,0.202,0.309,0.319,0.521,0.319c0.09,0,0.182-0.021,0.268-0.064c0.287-0.148,0.401-0.501,0.254-0.789
		l-2.762-5.391h5.865c0.735,0,1.333-0.598,1.333-1.332v-1.29h3.515c0.323,0,0.586-0.263,0.586-0.586S33.042,29.45,32.719,29.45z
		 M28.032,31.912c0,0.088-0.072,0.16-0.161,0.16H7.03c-0.088,0-0.161-0.072-0.161-0.16v-1.29h21.163V31.912z"/>
	<path fill="#FFFFFF" d="M6.763,4.306h8.021h5.332h13.127c0.268,0,0.485,0.218,0.485,0.486v5.571c0,0.324,0.263,0.586,0.586,0.586
		s0.586-0.262,0.586-0.586V4.792c0-0.914-0.743-1.658-1.657-1.658H20.703V1.982c0-0.811-0.66-1.47-1.471-1.47h-3.563
		c-0.811,0-1.47,0.66-1.47,1.47v1.151H6.763c-0.323,0-0.586,0.263-0.586,0.586C6.177,4.044,6.44,4.306,6.763,4.306z M15.371,1.982
		c0-0.165,0.134-0.298,0.298-0.298h3.563c0.165,0,0.298,0.134,0.298,0.298v1.151h-4.16V1.982L15.371,1.982z"/>
	<path fill="#FFFFFF" d="M8.195,20.904c-0.323,0-0.586,0.262-0.586,0.586v5.178c0,0.323,0.263,0.586,0.586,0.586h2.377
		c0.323,0,0.586-0.263,0.586-0.586V21.49c0-0.324-0.263-0.586-0.586-0.586H8.195z M9.987,26.082H8.781v-4.006h1.206V26.082z"/>
	<path fill="#FFFFFF" d="M13.573,17.91c-0.324,0-0.586,0.262-0.586,0.586v8.172c0,0.324,0.262,0.586,0.586,0.586h2.377
		c0.324,0,0.586-0.262,0.586-0.586v-8.172c0-0.324-0.262-0.586-0.586-0.586H13.573z M15.364,26.082h-1.205v-7h1.205V26.082z"/>
	<path fill="#FFFFFF" d="M18.951,20.904c-0.324,0-0.586,0.262-0.586,0.586v5.178c0,0.323,0.262,0.586,0.586,0.586h2.377
		c0.324,0,0.586-0.263,0.586-0.586V21.49c0-0.324-0.262-0.586-0.586-0.586H18.951z M20.742,26.082h-1.205v-4.006h1.205V26.082z"/>
	<path fill="#FFFFFF" d="M24.328,24.361c-0.322,0-0.586,0.263-0.586,0.586v1.721c0,0.324,0.264,0.586,0.586,0.586h2.378
		c0.323,0,0.586-0.262,0.586-0.586s-0.263-0.586-0.586-0.586h-1.792v-1.135C24.914,24.624,24.652,24.361,24.328,24.361z"/>
	<path fill="#FFFFFF" d="M39.701,30.002L36.34,24.18c0.852-0.908,1.472-2.018,1.803-3.254c0.529-1.976,0.258-4.04-0.766-5.811
		c-2.111-3.657-6.804-4.915-10.461-2.803c-3.656,2.111-4.914,6.805-2.803,10.462c1.022,1.771,2.674,3.038,4.65,3.568
		c0.659,0.176,1.328,0.264,1.994,0.264c0.581,0,1.159-0.066,1.725-0.199l3.361,5.822c0.412,0.714,1.162,1.113,1.932,1.113
		c0.378,0,0.761-0.096,1.11-0.298C39.573,32.647,40,31.908,40,31.114C40,30.725,39.896,30.34,39.701,30.002z M29.066,25.209
		c-1.674-0.448-3.072-1.521-3.938-3.021c-1.788-3.098-0.724-7.073,2.374-8.861c1.02-0.588,2.133-0.867,3.232-0.867
		c2.244,0,4.428,1.163,5.629,3.242c0.865,1.5,1.096,3.249,0.647,4.922s-1.522,3.072-3.022,3.938S30.74,25.658,29.066,25.209z
		 M38.301,32.029c-0.505,0.291-1.152,0.117-1.442-0.387l-3.233-5.602c0.324-0.132,0.641-0.287,0.949-0.465s0.602-0.376,0.877-0.591
		l3.234,5.603c0.094,0.16,0.143,0.343,0.143,0.526C38.828,31.49,38.626,31.842,38.301,32.029z"/>
	<path fill="#FFFFFF" d="M36.059,20.595c0.413-1.333,0.314-2.759-0.277-4.017c-0.139-0.293-0.488-0.418-0.78-0.28
		c-0.293,0.138-0.419,0.487-0.28,0.78c0.467,0.992,0.545,2.118,0.219,3.17c-0.329,1.058-1.039,1.945-1.998,2.499
		c-1.016,0.587-2.199,0.742-3.332,0.439c-1.133-0.304-2.08-1.03-2.667-2.046c-1.21-2.097-0.489-4.788,1.607-5.999
		c1.533-0.885,3.437-0.767,4.848,0.302c0.259,0.195,0.626,0.144,0.821-0.114c0.195-0.258,0.145-0.625-0.114-0.821
		c-1.788-1.354-4.198-1.503-6.141-0.382c-1.287,0.743-2.208,1.942-2.593,3.378c-0.385,1.435-0.187,2.935,0.557,4.221
		c0.742,1.287,1.942,2.208,3.377,2.593c0.48,0.128,0.967,0.192,1.449,0.192c0.965,0,1.916-0.253,2.773-0.748
		C34.743,23.06,35.643,21.936,36.059,20.595z"/>
</g>
</svg>
