<?xml version="1.0" encoding="utf-8"?>
<!-- Generator: Adobe Illustrator 13.0.0, SVG Export Plug-In . SVG Version: 6.00 Build 14948)  -->
<!DOCTYPE svg PUBLIC "-//W3C//DTD SVG 1.1//EN" "http://www.w3.org/Graphics/SVG/1.1/DTD/svg11.dtd">
<svg version="1.1" id="Layer_2" xmlns="http://www.w3.org/2000/svg" xmlns:xlink="http://www.w3.org/1999/xlink" x="0px" y="0px"
	 width="50.844px" height="50.031px" viewBox="0 0 50.844 50.031" enable-background="new 0 0 50.844 50.031" xml:space="preserve">
<path fill="#121B2D" d="M50.864,38.024c0,6.627-5.373,12-12,12H12.03c-6.627,0-12-5.373-12-12v-26c0-6.627,5.373-12,12-12h26.834
	c6.627,0,12,5.373,12,12V38.024z"/>
<circle fill="#121B2D" stroke="#FFFFFF" stroke-width="2" cx="25.447" cy="25.024" r="17"/>
<g>
	<path fill="#FFFFFF" d="M29.243,31.074c-1.121,0.569-2.033,0.684-2.792,0.684c-2.337,0-3.914-0.798-4.978-1.843
		c-1.14-1.103-1.976-2.774-1.976-4.807c0-1.995,0.836-3.666,1.976-4.768c1.121-1.083,2.755-1.824,4.73-1.824
		c0.836,0,1.805,0.171,3.04,0.703v3.382c-0.646-0.684-1.615-1.349-2.963-1.349c-1.064,0-1.919,0.342-2.584,0.988
		c-0.703,0.684-1.197,1.709-1.197,2.926c0,1.311,0.532,2.241,1.102,2.792c0.266,0.267,1.178,1.063,2.735,1.063
		c0.76,0,1.786-0.209,2.907-1.311V31.074z"/>
</g>
</svg>
