<?xml version="1.0" encoding="utf-8"?>
<!-- Generator: Adobe Illustrator 13.0.0, SVG Export Plug-In . SVG Version: 6.00 Build 14948)  -->
<!DOCTYPE svg PUBLIC "-//W3C//DTD SVG 1.1//EN" "http://www.w3.org/Graphics/SVG/1.1/DTD/svg11.dtd">
<svg version="1.1" id="Layer_2" xmlns="http://www.w3.org/2000/svg" xmlns:xlink="http://www.w3.org/1999/xlink" x="0px" y="0px"
	 width="50.828px" height="50px" viewBox="0 0 50.828 50" enable-background="new 0 0 50.828 50" xml:space="preserve">
<path fill="#1FAE96" d="M50.831,38.009c0,6.627-5.373,12-12,12H11.997c-6.627,0-12-5.373-12-12v-26c0-6.627,5.373-12,12-12h26.834
	c6.627,0,12,5.373,12,12V38.009z"/>
<circle fill="#1FAE96" stroke="#FFFFFF" stroke-width="2" cx="25.414" cy="25.009" r="17"/>
<g>
	<path fill="#FFFFFF" d="M28.111,20.882c-0.95-0.855-1.767-0.912-2.128-0.912c-0.399,0-0.893,0.057-1.234,0.437
		c-0.19,0.19-0.323,0.475-0.323,0.798c0,0.304,0.095,0.532,0.285,0.703c0.304,0.285,0.741,0.399,1.596,0.722l0.95,0.361
		c0.551,0.209,1.235,0.494,1.729,0.969c0.741,0.703,0.931,1.614,0.931,2.355c0,1.312-0.456,2.45-1.121,3.135
		c-1.121,1.178-2.755,1.292-3.591,1.292c-0.912,0-1.709-0.133-2.507-0.532c-0.646-0.323-1.387-0.911-1.862-1.387l1.52-2.09
		c0.323,0.323,0.836,0.761,1.178,0.97c0.494,0.303,1.007,0.455,1.596,0.455c0.38,0,0.912-0.076,1.33-0.437
		c0.247-0.209,0.456-0.552,0.456-1.026c0-0.418-0.171-0.684-0.437-0.912c-0.342-0.285-1.121-0.569-1.482-0.702L23.95,24.72
		c-0.589-0.209-1.272-0.475-1.767-1.007c-0.665-0.703-0.76-1.596-0.76-2.204c0-1.121,0.342-2.071,1.102-2.85
		c0.893-0.912,1.957-1.159,3.135-1.159c0.874,0,2.28,0.152,3.761,1.254L28.111,20.882z"/>
</g>
</svg>
