<?xml version="1.0" encoding="utf-8"?>
<!-- Generator: Adobe Illustrator 13.0.0, SVG Export Plug-In . SVG Version: 6.00 Build 14948)  -->
<!DOCTYPE svg PUBLIC "-//W3C//DTD SVG 1.1//EN" "http://www.w3.org/Graphics/SVG/1.1/DTD/svg11.dtd">
<svg version="1.1" id="Capa_1" xmlns="http://www.w3.org/2000/svg" xmlns:xlink="http://www.w3.org/1999/xlink" x="0px" y="0px"
	 width="40px" height="40px" viewBox="0 0 40 40" enable-background="new 0 0 40 40" xml:space="preserve">
<path id="XMLID_1468_" fill="#FFFFFF" d="M39.244,6.079l0.527-0.526c0.305-0.305,0.305-0.8,0-1.105
	c-0.306-0.305-0.801-0.305-1.105,0L38.14,4.974l-0.526-0.526c-0.146-0.146-0.346-0.229-0.553-0.229h-0.859l-3.99-3.99
	C32.064,0.083,31.865,0,31.658,0H2.813C1.262,0,0,1.262,0,2.813v14.641c0,1.551,1.262,2.813,2.813,2.813H9.62l-4.577,4.577
	c-0.531,0.531-0.824,1.237-0.824,1.989s0.293,1.458,0.824,1.99l10.353,10.352C15.927,39.707,16.633,40,17.385,40
	s1.458-0.293,1.99-0.824l7.753-7.754c0.306-0.305,0.306-0.799,0-1.104c-0.306-0.305-0.8-0.305-1.104,0l-7.754,7.754
	c-0.236,0.236-0.551,0.366-0.885,0.366s-0.648-0.13-0.885-0.366L6.148,27.719c-0.236-0.236-0.367-0.551-0.367-0.885
	s0.13-0.648,0.367-0.885L26.315,5.782h10.422l0.298,0.297l-1.807,1.807c-0.307-0.146-0.648-0.229-1.01-0.229
	c-1.293,0-2.344,1.051-2.344,2.344s1.051,2.344,2.344,2.344c1.292,0,2.344-1.051,2.344-2.344c0-0.361-0.082-0.704-0.229-1.01
	l1.807-1.807l0.298,0.297v10.422l-7.443,7.442c-0.305,0.305-0.305,0.8,0,1.105c0.306,0.305,0.801,0.305,1.105,0l7.672-7.671
	C39.918,18.633,40,18.435,40,18.227V7.158c0-0.208-0.082-0.406-0.229-0.553L39.244,6.079z M14.029,14.018
	c-0.431,0-0.781-0.351-0.781-0.781c0-0.431,0.351-0.782,0.781-0.782c0.431,0,0.782,0.351,0.782,0.782
	C14.811,13.667,14.46,14.018,14.029,14.018z M25.992,4.219c-0.207,0-0.406,0.083-0.553,0.229l-9.085,9.085
	c0.013-0.097,0.02-0.196,0.02-0.296c0-1.292-1.051-2.344-2.344-2.344s-2.344,1.052-2.344,2.344s1.052,2.344,2.344,2.344
	c0.101,0,0.199-0.007,0.296-0.02l-3.144,3.144H2.813c-0.689,0-1.251-0.562-1.251-1.251V2.813c0-0.689,0.562-1.251,1.251-1.251
	h28.521l2.657,2.657H25.992z M34.219,10.782c-0.432,0-0.781-0.351-0.781-0.781c0-0.431,0.35-0.781,0.781-0.781
	c0.178,0,0.342,0.061,0.474,0.162c0.021,0.027,0.042,0.053,0.067,0.078c0.025,0.024,0.051,0.047,0.078,0.067
	C34.939,9.658,35,9.822,35,10C35,10.431,34.649,10.782,34.219,10.782z"/>
<path id="XMLID_1527_" fill="#FFFFFF" d="M25.984,23.111c0.207,0,0.406-0.082,0.553-0.229l1.768-1.768
	c0.305-0.305,0.305-0.8,0-1.105c-0.306-0.305-0.801-0.305-1.105,0l-1.215,1.215l-3.867-3.867c-0.305-0.305-0.8-0.305-1.105,0
	c-0.305,0.305-0.305,0.8,0,1.105l4.42,4.419C25.578,23.029,25.777,23.111,25.984,23.111L25.984,23.111z"/>
<path id="XMLID_1528_" fill="#FFFFFF" d="M32.061,16.254c-0.305-0.305-0.8-0.305-1.105,0l-0.994,0.995l-1.104-1.105l0.995-0.994
	c0.305-0.305,0.305-0.8,0-1.105c-0.306-0.305-0.801-0.305-1.105,0l-0.994,0.994l-1.105-1.105l0.994-0.994
	c0.306-0.305,0.306-0.8,0-1.105c-0.305-0.305-0.799-0.305-1.104,0l-1.547,1.547c-0.146,0.146-0.229,0.345-0.229,0.552
	s0.082,0.406,0.229,0.553l4.419,4.419c0.152,0.152,0.354,0.229,0.553,0.229c0.2,0,0.4-0.077,0.553-0.229l1.547-1.547
	C32.365,17.054,32.365,16.559,32.061,16.254z"/>
<path id="XMLID_1531_" fill="#FFFFFF" d="M23.42,25.236c0.385,0.195,0.854,0.043,1.051-0.342c0.195-0.385,0.043-0.854-0.342-1.051
	l-5.855-2.982c-0.302-0.154-0.668-0.096-0.907,0.144s-0.297,0.605-0.144,0.907l2.983,5.855c0.138,0.271,0.412,0.427,0.697,0.427
	c0.119,0,0.24-0.027,0.354-0.085c0.385-0.196,0.538-0.667,0.342-1.051l-0.239-0.471l1.591-1.592L23.42,25.236z M20.613,25.124
	l-0.907-1.779l1.78,0.906L20.613,25.124z"/>
<path id="XMLID_1532_" fill="#FFFFFF" d="M15.93,31.279c-0.305,0.306-0.305,0.801,0,1.105c0.152,0.152,0.353,0.229,0.552,0.229
	s0.4-0.076,0.552-0.229l1.105-1.105c0.914-0.913,0.914-2.4,0-3.314c-0.869-0.868-2.254-0.91-3.174-0.128
	c-0.028,0.021-0.056,0.044-0.083,0.07l-0.058,0.058c-0.147,0.148-0.344,0.229-0.552,0.229c-0.209,0-0.405-0.081-0.553-0.229
	c-0.305-0.305-0.305-0.8,0-1.104l1.105-1.104c0.305-0.306,0.305-0.801,0-1.105s-0.8-0.305-1.105,0l-1.105,1.105
	c-0.914,0.913-0.914,2.4,0,3.314c0.443,0.442,1.031,0.686,1.657,0.686c0.625,0,1.213-0.242,1.656-0.685c0,0,0.001-0.001,0.002-0.001
	c0.304-0.305,0.8-0.305,1.104,0c0.148,0.147,0.229,0.344,0.229,0.552c0,0.209-0.081,0.405-0.229,0.553L15.93,31.279z"/>
<path id="XMLID_1533_" fill="#FFFFFF" d="M13.386,5.043c-0.376-0.212-0.853-0.08-1.064,0.296l-5.039,8.926
	c-0.212,0.376-0.08,0.853,0.296,1.064c0.121,0.068,0.253,0.101,0.383,0.101c0.272,0,0.538-0.143,0.681-0.397l5.039-8.926
	C13.894,5.732,13.762,5.255,13.386,5.043z"/>
<path id="XMLID_1536_" fill="#FFFFFF" d="M9.779,7.031c0-1.292-1.051-2.344-2.344-2.344c-1.293,0-2.344,1.051-2.344,2.344
	s1.051,2.344,2.344,2.344S9.779,8.323,9.779,7.031z M6.654,7.031c0-0.431,0.351-0.781,0.781-0.781c0.431,0,0.782,0.351,0.782,0.781
	c0,0.431-0.351,0.782-0.782,0.782C7.004,7.813,6.654,7.462,6.654,7.031z"/>
<path id="XMLID_1537_" fill="#FFFFFF" d="M29.062,27.603c-0.206,0-0.407,0.084-0.552,0.229c-0.146,0.145-0.229,0.347-0.229,0.552
	c0,0.206,0.083,0.407,0.229,0.553c0.145,0.146,0.346,0.229,0.552,0.229s0.407-0.083,0.552-0.229
	c0.146-0.146,0.229-0.347,0.229-0.553c0-0.205-0.083-0.407-0.229-0.552C29.469,27.687,29.268,27.603,29.062,27.603z"/>
</svg>
